<svg id="svg" version="1.1" xmlns="http://www.w3.org/2000/svg" xmlns:xlink="http://www.w3.org/1999/xlink" width="400" height="400" viewBox="0, 0, 400,400"><g id="svgg"><path id="path0" d="M20.673 150.100 C 20.039 150.567,20.001 154.127,20.097 203.600 L 20.200 256.600 72.175 256.702 C 113.492 256.782,124.216 256.700,124.469 256.302 C 125.025 255.426,124.878 150.638,124.320 150.080 C 123.605 149.365,21.645 149.385,20.673 150.100 M274.500 149.864 C 274.104 150.025,274.000 161.115,274.000 203.433 L 274.000 256.800 298.300 256.760 C 311.665 256.739,323.590 256.604,324.800 256.460 C 326.010 256.317,315.164 256.261,300.699 256.335 L 274.397 256.469 274.499 203.335 L 274.600 150.200 325.700 150.098 L 376.800 149.997 376.800 175.801 C 376.800 204.222,376.724 205.439,374.425 213.800 C 373.817 216.011,372.718 218.978,371.551 221.563 C 370.914 222.973,370.459 224.193,370.541 224.274 C 370.955 224.689,373.994 217.209,375.121 213.000 C 377.170 205.348,377.251 203.838,377.121 175.800 L 377.000 149.800 326.000 149.731 C 297.950 149.693,274.775 149.753,274.500 149.864 M368.946 226.700 C 363.756 235.762,354.450 244.899,346.061 249.171 C 345.105 249.657,344.409 250.142,344.514 250.248 C 345.257 250.990,354.592 244.364,359.290 239.758 C 363.582 235.551,371.463 224.800,370.255 224.800 C 370.133 224.800,369.544 225.655,368.946 226.700 M340.117 251.932 C 338.312 252.722,336.889 253.422,336.955 253.488 C 337.238 253.771,344.000 250.989,344.000 250.590 C 344.000 250.275,343.539 250.434,340.117 251.932 M334.600 254.000 C 334.285 254.509,335.212 254.509,336.000 254.000 C 336.488 253.685,336.436 253.611,335.724 253.606 C 335.242 253.603,334.736 253.780,334.600 254.000 M330.600 254.889 C 329.720 255.102,328.550 255.378,328.000 255.502 C 327.417 255.634,327.250 255.784,327.600 255.863 C 327.930 255.937,329.550 255.658,331.200 255.243 C 332.850 254.828,333.750 254.491,333.200 254.495 C 332.650 254.498,331.480 254.676,330.600 254.889 " stroke="none" fill="#f59e58" fill-rule="evenodd"></path><path id="path1" d="M147.468 20.265 C 147.321 20.413,147.200 44.263,147.200 73.267 L 147.200 126.000 198.801 126.000 L 250.403 126.000 250.301 73.100 L 250.200 20.200 198.968 20.098 C 170.791 20.043,147.616 20.118,147.468 20.265 " stroke="none" fill="#6676f8" fill-rule="evenodd"></path><path id="path2" d="M74.200 20.594 C 47.300 23.921,26.447 44.167,22.032 71.246 C 21.754 72.946,21.600 83.211,21.600 99.946 L 21.600 126.000 72.957 126.000 C 119.419 126.000,124.338 125.940,124.557 125.367 C 124.873 124.543,124.864 22.081,124.548 20.900 L 124.307 20.000 101.253 20.050 C 85.659 20.084,76.906 20.260,74.200 20.594 M20.030 300.699 C 20.046 312.524,20.181 323.010,20.330 324.000 C 20.478 324.990,20.541 315.405,20.469 302.700 L 20.337 279.600 72.370 279.600 L 124.403 279.600 124.302 328.412 L 124.200 377.223 98.800 377.265 C 84.830 377.288,74.390 377.445,75.600 377.614 C 76.810 377.783,88.282 377.939,101.092 377.960 L 124.385 378.000 124.602 377.100 C 124.722 376.605,124.770 354.420,124.710 327.800 L 124.600 279.400 72.300 279.299 L 20.000 279.197 20.030 300.699 M147.282 280.878 C 146.646 281.514,146.575 378.214,147.210 378.606 C 147.435 378.745,147.594 378.711,147.563 378.530 C 147.531 378.348,147.527 356.285,147.553 329.500 L 147.600 280.800 198.829 280.800 L 250.057 280.800 249.929 304.250 C 249.858 317.148,249.937 326.883,250.103 325.885 C 250.270 324.886,250.360 314.289,250.303 302.335 L 250.200 280.600 198.982 280.498 C 159.476 280.420,147.653 280.507,147.282 280.878 M20.886 327.200 C 20.883 327.970,21.024 329.050,21.200 329.600 C 21.650 331.004,21.665 329.537,21.223 327.400 L 20.892 325.800 20.886 327.200 M249.019 329.927 C 248.855 330.877,248.817 331.750,248.934 331.868 C 249.226 332.159,249.726 329.373,249.500 328.721 C 249.400 328.435,249.184 328.977,249.019 329.927 M21.646 331.600 C 21.627 332.150,21.787 332.870,22.000 333.200 C 22.494 333.964,22.494 333.142,22.000 331.600 L 21.680 330.600 21.646 331.600 M248.250 333.650 C 248.109 334.353,248.069 335.002,248.159 335.092 C 248.250 335.183,248.448 334.691,248.600 334.000 C 248.752 333.309,248.793 332.659,248.691 332.558 C 248.589 332.456,248.391 332.947,248.250 333.650 M22.428 334.402 C 22.322 336.695,28.122 348.924,30.784 352.019 C 31.248 352.559,30.888 351.830,29.984 350.400 C 27.691 346.771,24.918 341.012,23.584 337.103 C 22.963 335.287,22.443 334.071,22.428 334.402 M247.086 337.686 C 246.721 338.825,246.490 339.823,246.571 339.904 C 246.652 339.985,247.025 339.129,247.400 338.000 C 247.775 336.871,248.006 335.873,247.915 335.781 C 247.823 335.690,247.450 336.547,247.086 337.686 M243.986 345.312 C 243.223 346.893,241.559 349.779,240.286 351.725 C 239.014 353.672,238.147 355.156,238.361 355.024 C 239.491 354.326,245.991 343.058,245.530 342.597 C 245.443 342.509,244.748 343.731,243.986 345.312 M32.439 354.400 C 33.913 356.662,41.984 364.452,44.803 366.334 C 47.730 368.288,47.221 367.796,42.280 363.899 C 40.396 362.414,37.693 359.894,36.272 358.299 C 34.852 356.705,33.203 354.860,32.608 354.200 L 31.527 353.000 32.439 354.400 M233.200 360.362 C 227.407 366.301,224.515 368.500,217.800 372.070 C 215.820 373.123,214.380 373.986,214.600 373.987 C 215.428 373.991,222.888 369.711,225.903 367.500 C 229.874 364.590,239.170 355.412,237.934 355.623 C 237.860 355.635,235.730 357.768,233.200 360.362 M47.820 368.336 C 48.448 368.892,51.200 370.479,51.200 370.286 C 51.200 370.045,48.094 368.000,47.729 368.000 C 47.570 368.000,47.611 368.151,47.820 368.336 M51.600 370.553 C 51.600 370.733,55.275 372.548,57.000 373.219 C 60.841 374.713,63.470 375.596,63.998 375.568 C 64.329 375.551,63.790 375.267,62.800 374.937 C 59.498 373.836,54.614 371.855,53.400 371.125 C 52.249 370.433,51.600 370.226,51.600 370.553 M210.400 375.212 C 208.750 375.843,207.670 376.365,208.000 376.373 C 208.715 376.391,211.470 375.464,211.859 375.074 C 212.010 374.923,212.453 374.800,212.843 374.800 C 213.233 374.800,213.664 374.620,213.800 374.400 C 214.151 373.833,213.776 373.922,210.400 375.212 M65.400 376.000 C 65.840 376.189,66.560 376.344,67.000 376.344 L 67.800 376.344 67.000 376.000 C 66.560 375.811,65.840 375.656,65.400 375.656 L 64.600 375.656 65.400 376.000 M69.200 376.800 C 69.750 376.976,70.830 377.117,71.600 377.114 L 73.000 377.108 71.400 376.777 C 69.263 376.335,67.796 376.350,69.200 376.800 M203.600 377.200 C 202.170 377.597,201.306 377.940,201.680 377.961 C 202.453 378.005,206.813 376.920,207.127 376.606 C 207.482 376.251,206.295 376.451,203.600 377.200 M196.000 378.400 L 194.200 378.680 196.000 378.693 C 196.990 378.700,198.340 378.568,199.000 378.400 L 200.200 378.095 199.000 378.107 C 198.340 378.114,196.990 378.246,196.000 378.400 M158.472 379.100 C 164.341 379.162,174.061 379.162,180.072 379.100 C 186.082 379.038,181.280 378.987,169.400 378.986 C 157.520 378.986,152.602 379.037,158.472 379.100 " stroke="none" fill="#41bf88" fill-rule="evenodd"></path><path id="path3" d="M274.185 22.100 C 274.080 22.375,274.041 45.820,274.097 74.200 L 274.200 125.800 325.700 125.902 L 377.200 126.003 377.200 101.267 C 377.200 69.525,376.778 66.360,370.973 54.600 C 362.494 37.419,346.624 25.723,327.000 22.191 C 322.607 21.400,274.483 21.317,274.185 22.100 " stroke="none" fill="#ff7575" fill-rule="evenodd"></path><path id="path4" d="M147.700 149.865 C 147.304 150.025,147.200 161.114,147.200 203.433 L 147.200 256.800 198.800 256.800 L 250.400 256.800 250.400 203.443 C 250.400 155.157,250.340 150.063,249.767 149.843 C 249.010 149.552,148.421 149.574,147.700 149.865 " stroke="none" fill="#bd83ce" fill-rule="evenodd"></path><path id="path5" d="M274.667 150.267 C 274.520 150.413,274.400 174.369,274.400 203.501 L 274.400 256.469 300.500 256.302 C 318.323 256.188,326.981 255.994,327.800 255.689 C 328.460 255.444,330.080 255.038,331.400 254.786 C 332.720 254.535,334.113 254.165,334.495 253.965 C 334.877 253.764,335.431 253.600,335.726 253.600 C 337.417 253.600,346.374 249.252,350.711 246.325 C 361.154 239.278,370.172 227.475,373.668 216.276 C 376.715 206.517,376.800 205.419,376.800 175.803 L 376.800 150.000 325.867 150.000 C 297.853 150.000,274.813 150.120,274.667 150.267 " stroke="none" fill="#f3c84c" fill-rule="evenodd"></path><path id="path6" d="M20.407 299.900 C 20.414 320.018,20.635 324.900,21.793 330.502 C 24.237 342.328,31.671 355.057,40.433 362.422 C 43.383 364.901,47.480 368.000,47.808 368.000 C 47.956 368.000,48.599 368.372,49.237 368.826 C 51.793 370.647,58.044 373.437,62.600 374.791 C 70.415 377.114,71.508 377.187,99.000 377.206 L 124.200 377.224 124.302 328.412 L 124.403 279.600 72.402 279.600 L 20.400 279.600 20.407 299.900 " stroke="none" fill="#36c3e2" fill-rule="evenodd"></path><path id="path7" d="M147.600 329.400 C 147.600 356.130,147.555 378.135,147.500 378.300 C 147.324 378.827,190.908 378.907,196.000 378.389 C 222.299 375.716,242.860 357.422,248.832 331.384 C 249.716 327.529,249.751 326.643,249.901 304.100 L 250.057 280.800 198.829 280.800 L 147.600 280.800 147.600 329.400 " stroke="none" fill="#88cfb0" fill-rule="evenodd"></path><path id="path8" d="M67.600 0.444 C 66.390 0.627,64.590 0.891,63.600 1.031 C 62.610 1.172,61.530 1.521,61.200 1.807 C 60.870 2.093,59.563 2.454,58.295 2.610 C 57.027 2.766,55.891 3.052,55.771 3.247 C 55.651 3.441,55.135 3.600,54.625 3.600 C 54.115 3.600,53.481 3.861,53.216 4.180 C 52.951 4.500,51.925 4.882,50.935 5.031 C 49.946 5.179,49.041 5.548,48.925 5.850 C 48.809 6.153,48.461 6.400,48.152 6.400 C 47.566 6.400,47.012 6.632,45.000 7.718 C 44.340 8.075,43.125 8.664,42.300 9.027 C 41.475 9.390,40.800 9.847,40.800 10.043 C 40.800 10.240,40.440 10.400,40.000 10.400 C 39.560 10.400,39.200 10.580,39.200 10.800 C 39.200 11.020,38.958 11.200,38.662 11.200 C 38.366 11.200,37.798 11.560,37.400 12.000 C 37.002 12.440,36.384 12.800,36.026 12.800 C 35.669 12.800,35.117 13.160,34.800 13.600 C 34.483 14.040,34.026 14.400,33.784 14.400 C 33.542 14.400,32.739 14.940,32.000 15.600 C 31.261 16.260,30.536 16.800,30.389 16.800 C 30.242 16.800,28.987 17.880,27.600 19.200 C 26.213 20.520,24.925 21.600,24.739 21.600 C 24.553 21.600,24.400 21.870,24.400 22.200 C 24.400 22.530,24.113 22.800,23.763 22.800 C 23.412 22.800,23.031 23.160,22.916 23.600 C 22.801 24.040,22.458 24.400,22.153 24.400 C 21.849 24.400,21.599 24.535,21.598 24.700 C 21.597 24.865,20.517 26.157,19.198 27.572 C 17.879 28.987,16.800 30.259,16.800 30.400 C 16.800 30.541,16.260 31.261,15.600 32.000 C 14.940 32.739,14.400 33.542,14.400 33.784 C 14.400 34.026,14.040 34.483,13.600 34.800 C 13.160 35.117,12.800 35.614,12.800 35.905 C 12.800 36.462,11.210 38.907,10.700 39.133 C 10.535 39.207,10.400 39.612,10.400 40.033 C 10.400 40.455,10.242 40.800,10.049 40.800 C 9.855 40.800,9.461 41.385,9.172 42.100 C 8.883 42.815,8.419 43.540,8.140 43.711 C 7.861 43.882,7.515 44.649,7.371 45.415 C 7.227 46.182,6.950 46.907,6.755 47.028 C 6.560 47.149,6.400 47.602,6.400 48.036 C 6.400 48.470,6.149 48.922,5.841 49.039 C 5.534 49.157,5.165 50.037,5.022 50.994 C 4.878 51.951,4.500 52.951,4.180 53.216 C 3.861 53.481,3.600 54.115,3.600 54.625 C 3.600 55.135,3.438 55.653,3.239 55.776 C 3.041 55.898,2.754 57.071,2.602 58.381 C 2.450 59.692,2.072 60.974,1.763 61.231 C 1.443 61.496,1.200 62.421,1.200 63.369 C 1.200 64.288,0.975 65.265,0.700 65.540 C -0.035 66.275,-0.035 332.925,0.700 333.660 C 0.975 333.935,1.200 334.912,1.200 335.831 C 1.200 336.779,1.443 337.704,1.763 337.969 C 2.072 338.226,2.450 339.508,2.602 340.819 C 2.754 342.129,3.041 343.302,3.239 343.424 C 3.438 343.547,3.600 344.009,3.600 344.452 C 3.600 344.895,3.859 345.516,4.176 345.833 C 4.493 346.150,4.876 347.232,5.026 348.237 C 5.177 349.241,5.522 350.149,5.792 350.252 C 6.063 350.356,6.625 351.445,7.042 352.671 C 7.459 353.898,8.025 354.988,8.300 355.094 C 8.575 355.199,8.800 355.531,8.800 355.831 C 8.800 356.312,9.184 357.079,10.988 360.200 C 12.488 362.796,13.032 363.595,13.300 363.597 C 13.465 363.599,13.600 363.870,13.600 364.200 C 13.600 364.530,13.768 364.800,13.973 364.800 C 14.178 364.800,14.454 365.140,14.586 365.555 C 14.718 365.971,15.225 366.767,15.713 367.324 C 16.201 367.881,17.140 369.019,17.800 369.852 C 18.907 371.250,22.160 374.895,23.619 376.373 C 24.754 377.524,29.292 381.398,29.671 381.541 C 29.877 381.618,30.468 382.068,30.985 382.541 C 32.917 384.309,37.680 387.600,38.306 387.600 C 38.531 387.600,38.812 387.853,38.930 388.162 C 39.049 388.472,39.698 388.846,40.373 388.994 C 41.048 389.142,41.600 389.421,41.600 389.613 C 41.600 390.011,45.010 391.600,45.863 391.600 C 46.172 391.600,46.524 391.857,46.644 392.170 C 46.764 392.484,47.558 392.858,48.408 393.001 C 49.258 393.145,50.166 393.518,50.426 393.831 C 50.686 394.144,51.225 394.400,51.625 394.400 C 52.025 394.400,52.454 394.563,52.577 394.763 C 52.700 394.962,53.705 395.249,54.811 395.401 C 55.916 395.554,57.073 395.930,57.382 396.239 C 57.690 396.548,58.496 396.800,59.171 396.800 C 59.847 396.800,60.400 396.980,60.400 397.200 C 60.400 397.420,61.109 397.600,61.976 397.600 C 62.843 397.600,63.664 397.780,63.800 398.000 C 63.936 398.220,64.926 398.400,66.000 398.400 C 67.074 398.400,68.064 398.580,68.200 398.800 C 68.337 399.021,70.137 399.200,72.224 399.200 C 74.475 399.200,76.000 399.362,76.000 399.600 C 76.000 399.865,96.192 400.000,135.776 400.000 C 175.196 400.000,195.637 399.864,195.800 399.600 C 195.936 399.379,197.730 399.200,199.800 399.200 C 201.870 399.200,203.664 399.021,203.800 398.800 C 203.936 398.580,204.847 398.400,205.824 398.400 C 206.801 398.400,207.600 398.220,207.600 398.000 C 207.600 397.780,208.399 397.600,209.376 397.600 C 210.353 397.600,211.264 397.420,211.400 397.200 C 211.536 396.980,212.272 396.800,213.036 396.800 C 213.875 396.800,214.512 396.572,214.646 396.225 C 214.780 395.875,215.719 395.543,217.033 395.379 C 218.225 395.230,219.200 394.949,219.200 394.754 C 219.200 394.559,219.631 394.400,220.157 394.400 C 220.684 394.400,221.213 394.143,221.334 393.828 C 221.455 393.513,222.374 393.133,223.377 392.983 C 224.445 392.822,225.200 392.498,225.200 392.199 C 225.200 391.919,225.812 391.574,226.560 391.434 C 227.308 391.294,228.523 390.779,229.260 390.289 C 229.997 389.800,231.095 389.145,231.700 388.832 C 232.305 388.520,232.800 388.115,232.800 387.932 C 232.800 387.750,233.087 387.600,233.438 387.600 C 234.082 387.600,235.945 386.422,237.375 385.111 C 237.802 384.720,238.295 384.400,238.471 384.400 C 238.795 384.400,239.656 383.736,241.453 382.100 C 241.996 381.605,242.575 381.200,242.739 381.200 C 243.601 381.200,255.200 368.978,255.200 368.071 C 255.200 367.827,255.560 367.435,256.000 367.200 C 256.440 366.965,256.800 366.508,256.800 366.186 C 256.800 365.864,256.980 365.600,257.200 365.600 C 257.420 365.600,257.600 365.330,257.600 365.000 C 257.600 364.670,257.741 364.400,257.914 364.400 C 258.086 364.400,258.568 363.815,258.984 363.100 C 259.399 362.385,259.857 361.710,260.001 361.600 C 260.421 361.279,261.600 358.727,261.600 358.139 C 261.600 357.842,261.862 357.600,262.182 357.600 C 262.530 357.600,262.869 357.038,263.026 356.200 C 263.171 355.430,263.436 354.800,263.615 354.800 C 264.073 354.800,265.131 352.577,265.429 350.987 C 265.566 350.255,265.931 349.559,266.239 349.440 C 266.548 349.322,266.800 348.769,266.800 348.213 C 266.800 347.656,266.980 347.200,267.200 347.200 C 267.420 347.200,267.600 346.660,267.600 346.000 C 267.600 345.340,267.760 344.800,267.955 344.800 C 268.295 344.800,268.455 344.268,269.036 341.200 C 269.181 340.430,269.453 339.608,269.639 339.372 C 269.825 339.137,270.182 337.607,270.431 335.972 C 270.680 334.338,271.046 332.687,271.242 332.305 C 271.439 331.923,271.600 330.359,271.600 328.829 C 271.600 327.299,271.780 325.936,272.000 325.800 C 272.260 325.640,272.400 317.072,272.400 301.403 L 272.400 277.254 302.632 277.127 C 330.034 277.012,332.910 276.939,333.342 276.347 C 333.604 275.989,334.625 275.598,335.609 275.479 C 339.000 275.070,342.201 274.305,342.831 273.753 C 343.179 273.449,343.677 273.200,343.938 273.200 C 344.806 273.200,347.600 272.210,347.600 271.903 C 347.600 271.736,348.050 271.600,348.600 271.600 C 349.150 271.600,349.600 271.420,349.600 271.200 C 349.600 270.980,349.890 270.800,350.246 270.800 C 350.811 270.800,352.091 270.227,355.000 268.672 C 355.440 268.436,356.655 267.813,357.700 267.286 C 358.745 266.759,359.600 266.201,359.600 266.045 C 359.600 265.888,360.208 265.541,360.950 265.273 C 361.693 265.004,362.782 264.338,363.371 263.792 C 363.959 263.246,364.702 262.800,365.021 262.800 C 365.339 262.800,365.600 262.530,365.600 262.200 C 365.600 261.870,365.825 261.599,366.100 261.598 C 366.565 261.596,368.236 260.292,370.925 257.830 C 371.544 257.263,372.138 256.800,372.246 256.800 C 372.497 256.800,378.711 250.409,379.903 248.925 C 380.400 248.306,381.435 247.058,382.203 246.152 C 382.972 245.245,383.600 244.340,383.600 244.140 C 383.600 243.940,383.960 243.517,384.400 243.200 C 384.840 242.883,385.200 242.492,385.200 242.332 C 385.200 242.171,385.740 241.240,386.400 240.262 C 387.060 239.284,387.600 238.285,387.600 238.042 C 387.600 237.799,387.760 237.600,387.957 237.600 C 388.153 237.600,388.613 236.925,388.980 236.100 C 389.347 235.275,390.076 233.790,390.600 232.800 C 391.124 231.810,391.563 230.704,391.576 230.343 C 391.589 229.981,391.852 229.589,392.160 229.471 C 392.468 229.352,392.842 228.534,392.991 227.651 C 393.141 226.768,393.518 225.834,393.831 225.574 C 394.144 225.314,394.400 224.775,394.400 224.375 C 394.400 223.975,394.559 223.549,394.753 223.429 C 394.948 223.309,395.229 222.231,395.379 221.033 C 395.528 219.836,395.909 218.641,396.225 218.379 C 396.541 218.117,396.800 217.305,396.800 216.575 C 396.800 215.845,396.946 215.157,397.124 215.047 C 397.302 214.937,397.493 213.985,397.547 212.933 C 397.602 211.880,397.798 210.924,397.983 210.809 C 399.407 209.924,399.378 66.400,397.953 66.400 C 397.759 66.400,397.600 65.511,397.600 64.424 C 397.600 63.337,397.420 62.336,397.200 62.200 C 396.980 62.064,396.800 61.355,396.800 60.625 C 396.800 59.895,396.546 59.087,396.235 58.829 C 395.924 58.571,395.542 57.431,395.386 56.296 C 395.230 55.161,394.970 53.955,394.808 53.616 C 394.646 53.277,394.239 52.460,393.903 51.800 C 393.567 51.140,393.165 50.003,393.008 49.273 C 392.852 48.543,392.472 47.849,392.162 47.730 C 391.853 47.612,391.600 47.118,391.600 46.634 C 391.600 46.149,391.336 45.404,391.013 44.976 C 390.690 44.549,390.420 43.904,390.413 43.543 C 390.406 43.181,390.153 42.791,389.851 42.675 C 389.550 42.559,389.180 41.975,389.030 41.378 C 388.880 40.780,388.317 39.713,387.779 39.008 C 387.240 38.302,386.800 37.544,386.800 37.324 C 386.800 37.104,386.440 36.598,386.000 36.200 C 385.560 35.802,385.200 35.234,385.200 34.938 C 385.200 34.642,385.020 34.400,384.800 34.400 C 384.580 34.400,384.400 34.222,384.400 34.005 C 384.400 33.556,383.429 32.282,382.100 30.986 C 381.605 30.503,381.200 29.938,381.200 29.730 C 381.200 29.146,372.666 20.395,372.100 20.398 C 371.825 20.399,371.600 20.136,371.600 19.814 C 371.600 19.492,371.195 19.014,370.700 18.751 C 370.205 18.489,369.509 17.943,369.153 17.537 C 368.797 17.132,368.304 16.800,368.056 16.800 C 367.809 16.800,367.382 16.440,367.107 16.000 C 366.832 15.560,366.396 15.200,366.137 15.200 C 365.878 15.200,365.607 15.043,365.533 14.852 C 365.331 14.323,359.606 10.687,356.600 9.178 C 355.720 8.737,354.730 8.212,354.400 8.013 C 353.064 7.206,351.034 6.400,350.339 6.400 C 349.932 6.400,349.600 6.147,349.600 5.838 C 349.600 5.467,348.928 5.183,347.630 5.004 C 346.506 4.850,345.567 4.490,345.443 4.167 C 345.323 3.855,344.780 3.600,344.236 3.600 C 343.692 3.600,343.145 3.434,343.019 3.231 C 342.894 3.029,341.635 2.739,340.222 2.588 C 338.603 2.414,337.573 2.107,337.439 1.756 C 337.302 1.400,336.603 1.200,335.493 1.200 C 334.540 1.200,333.535 0.975,333.260 0.700 C 332.674 0.113,71.452 -0.139,67.600 0.444 M124.548 20.900 C 124.864 22.081,124.873 124.543,124.557 125.367 C 124.338 125.940,119.419 126.000,72.957 126.000 L 21.600 126.000 21.600 99.946 C 21.600 83.211,21.754 72.946,22.032 71.246 C 26.447 44.167,47.300 23.921,74.200 20.594 C 76.906 20.260,85.659 20.084,101.253 20.050 L 124.307 20.000 124.548 20.900 M250.301 73.100 L 250.403 126.000 198.801 126.000 L 147.200 126.000 147.200 73.267 C 147.200 44.263,147.321 20.413,147.468 20.265 C 147.616 20.118,170.791 20.043,198.968 20.098 L 250.200 20.200 250.301 73.100 M327.000 22.191 C 346.624 25.723,362.494 37.419,370.973 54.600 C 376.778 66.360,377.200 69.525,377.200 101.267 L 377.200 126.003 325.700 125.902 L 274.200 125.800 274.097 74.200 C 274.041 45.820,274.080 22.375,274.185 22.100 C 274.483 21.317,322.607 21.400,327.000 22.191 M124.320 150.080 C 124.878 150.638,125.025 255.426,124.469 256.302 C 124.216 256.700,113.492 256.782,72.175 256.702 L 20.200 256.600 20.097 203.600 C 20.001 154.127,20.039 150.567,20.673 150.100 C 21.645 149.385,123.605 149.365,124.320 150.080 M249.767 149.843 C 250.340 150.063,250.400 155.157,250.400 203.443 L 250.400 256.800 198.800 256.800 L 147.200 256.800 147.200 203.433 C 147.200 161.114,147.304 150.025,147.700 149.865 C 148.421 149.574,249.010 149.552,249.767 149.843 M377.121 175.800 C 377.238 201.116,377.120 204.569,375.963 209.600 C 370.590 232.974,353.967 249.749,330.483 255.498 L 326.200 256.547 300.100 256.697 L 274.000 256.847 274.000 203.457 C 274.000 161.119,274.104 150.025,274.500 149.864 C 274.775 149.753,297.950 149.693,326.000 149.731 L 377.000 149.800 377.121 175.800 M124.710 327.800 C 124.770 354.420,124.722 376.605,124.602 377.100 L 124.385 378.000 101.492 377.997 C 79.547 377.993,72.783 377.708,68.000 376.585 C 67.450 376.456,66.190 376.160,65.200 375.926 C 46.534 371.519,28.871 355.217,23.241 337.200 C 22.725 335.550,22.162 333.750,21.988 333.200 C 21.609 331.995,20.960 328.436,20.407 324.523 C 20.172 322.865,20.000 312.658,20.000 300.422 L 20.000 279.197 72.300 279.299 L 124.600 279.400 124.710 327.800 M250.330 301.600 C 250.493 327.884,250.001 332.300,245.804 342.200 C 239.472 357.135,226.327 369.901,211.800 375.226 C 208.202 376.545,205.451 377.259,199.400 378.443 C 195.988 379.111,148.837 379.462,147.653 378.828 L 146.800 378.372 146.800 329.866 C 146.800 292.588,146.911 281.249,147.282 280.878 C 147.653 280.507,159.476 280.420,198.982 280.498 L 250.200 280.600 250.330 301.600 " stroke="none" fill="#2f2e3b" fill-rule="evenodd"></path></g></svg>